<mxfile host="app.diagrams.net" modified="2023-10-09T23:44:11.343Z" agent="Mozilla/5.0 (Windows NT 10.0; Win64; x64) AppleWebKit/537.36 (KHTML, like Gecko) Chrome/117.0.0.0 Safari/537.36" version="22.0.4" etag="61zU47ONvEuYC6EKkkIU" type="github">
  <diagram name="Page-1" id="5tSCLQEp5h7G4XcqJJYg">
    <mxGraphModel>
      <root>
        <mxCell id="0" />
        <mxCell id="1" parent="0" />
      </root>
    </mxGraphModel>
  </diagram>
</mxfile>
